<?xml version="1.0" standalone="no"?><!DOCTYPE svg PUBLIC "-//W3C//DTD SVG 1.1//EN" "http://www.w3.org/Graphics/SVG/1.1/DTD/svg11.dtd"><svg t="1496147121719" class="icon" style="" viewBox="0 0 1024 1024" version="1.1" xmlns="http://www.w3.org/2000/svg" p-id="2416" xmlns:xlink="http://www.w3.org/1999/xlink" width="48" height="48"><defs><style type="text/css">* { font-weight: 500 !important; }
* { font-family: "“Microsoft Yahei”", "“Microsoft Yahei”"; }
* { text-shadow: rgb(153, 153, 153) 0.01em 0.01em 0.01em !important; }
* { text-decoration: none !important; }
</style></defs><path d="M511.538251 821.365008c-97.546977 0-194.972325 0-292.519302 0C175.353906 821.365008 145.919532 791.809003 145.919532 748.02233c0-37.94845-0.12163-75.77527 0-113.72372 0-16.055113 4.743556-30.529041 16.784891-41.597339 4.257038-3.892149 9.365483-7.541038 14.717187-9.243853 56.192897-17.636299 62.274379-88.789642 21.771707-120.53498-8.027557-6.324742-16.663262-12.284594-25.785485-16.906521C154.920126 436.650434 145.919532 422.298135 145.919532 401.742725c0.12163-41.718969-0.243259-83.559568 0.12163-125.278537 0.364889-37.218672 30.772301-67.261195 67.990973-67.869343 12.162965-0.243259 24.325929 0 36.488894 0 185.241953 0 370.483905 0 555.847488 0 34.54282 0 62.03112 21.163559 69.693788 53.760304 1.216296 5.108445 1.824445 10.46015 1.824445 15.690224 0.12163 40.381043-0.364889 80.640456 0.243259 121.021499 0.243259 21.893337-9.365483 36.853783-28.096449 47.313933-10.21689 5.716593-19.825632 12.527854-29.434375 19.339114-29.677634 21.163559-29.434375 77.842974 0.364889 99.371422 8.514075 6.203112 17.27141 12.162965 26.393633 17.14978 20.312151 11.189928 31.01556 27.245041 30.650671 51.084452-0.486519 39.286376 0 78.694382-0.12163 117.980758-0.12163 39.651265-30.529041 70.058677-70.180306 70.058677C708.943169 821.365008 610.179895 821.365008 511.538251 821.365008zM541.945663 604.134458c3.284 0 5.473334 0 7.662668 0 23.109633 0 46.219266 0.12163 69.328899 0 13.74415 0 21.771707-8.149186 21.893337-22.014966 0-4.865186 0-9.730372 0-14.595558-0.12163-15.325336-7.905927-23.231263-23.231263-23.231263-22.866374 0-45.854377 0-68.720751 0-2.189334 0-4.257038 0-6.324742 0 0-6.93289 0-12.892743 0-19.217484 2.797482 0 4.986816 0 7.176149 0 23.474522 0 47.070673 0.12163 70.545195 0 12.041335-0.12163 20.190521-8.270816 20.55541-20.190521 0.243259-5.838223 0.12163-11.798076 0-17.636299-0.12163-13.62252-8.392446-21.771707-22.136596-21.893337-14.230669-0.12163-28.339708 0-42.570377 0-1.702815 0-3.40563-0.243259-6.081482-0.364889 2.310963-2.554223 3.892149-4.257038 5.473334-6.081482 18.730966-20.190521 37.583561-40.381043 56.436156-60.449935 10.825039-11.676446 10.946668-21.650077 0-33.569783-2.675852-3.040741-5.473334-5.959853-8.270816-8.878964-9.730372-10.46015-21.285188-10.46015-31.01556 0-15.203706 16.298373-30.407412 32.596745-45.611118 48.895118-11.554816 12.406224-23.231263 24.812448-35.150968 37.583561-2.310963-2.432593-4.257038-4.378667-6.081482-6.446371-25.055707-26.880152-49.989785-53.638674-75.045492-80.518826-9.243853-9.852001-21.041929-9.730372-30.285782 0-3.040741 3.284-6.081482 6.568001-9.122224 9.852001-10.21689 11.189928-10.095261 21.528448 0.364889 32.718375 19.217484 20.55541 38.434969 41.23245 57.652453 61.787861 1.459556 1.459556 2.675852 3.162371 4.743556 5.594964-17.636299 0-33.813042-0.12163-49.989785 0-12.527854 0.12163-20.79867 8.514075-21.041929 21.163559-0.12163 5.230075 0 10.581779 0 15.811854 0.12163 14.960447 7.784297 22.866374 22.866374 22.866374 22.866374 0 45.854377 0 68.720751 0 2.189334 0 4.378667 0 6.93289 0 0 6.689631 0 12.649483 0 19.217484-2.554223 0-4.743556 0-6.93289 0-22.501485 0-45.002969 0-67.504454 0-16.420002 0-23.961041 7.662668-24.08267 24.325929 0 4.257038 0 8.514075 0 12.771113 0.12163 14.960447 7.905927 22.744744 22.866374 22.866374 22.866374 0 45.854377 0 68.720751 0 2.189334 0 4.378667 0 7.176149 0 0 8.392446 0 16.055113 0 23.717781 0 11.189928-0.12163 22.258225 0 33.448153 0.243259 14.109039 8.149186 21.650077 22.014966 21.771707 6.324742 0 12.527854 0.12163 18.852595-0.12163 9.730372-0.364889 17.27141-7.05452 18.730966-16.784891 0.608148-4.013778 0.486519-8.027557 0.486519-12.162965C542.067293 637.70424 541.945663 621.405868 541.945663 604.134458z" p-id="2417"></path></svg>